G04 #@! TF.GenerationSoftware,KiCad,Pcbnew,(5.99.0-9519-ga70106a3bd)*
G04 #@! TF.CreationDate,2021-03-11T21:55:01+03:00*
G04 #@! TF.ProjectId,UnderControl,556e6465-7243-46f6-9e74-726f6c2e6b69,rev?*
G04 #@! TF.SameCoordinates,Original*
G04 #@! TF.FileFunction,Paste,Bot*
G04 #@! TF.FilePolarity,Positive*
%FSLAX46Y46*%
G04 Gerber Fmt 4.6, Leading zero omitted, Abs format (unit mm)*
G04 Created by KiCad (PCBNEW (5.99.0-9519-ga70106a3bd)) date 2021-03-11 21:55:01*
%MOMM*%
%LPD*%
G01*
G04 APERTURE LIST*
%ADD10R,1.500000X4.000000*%
%ADD11R,2.250000X1.100000*%
%ADD12R,1.100000X1.050000*%
%ADD13R,1.100000X2.250000*%
%ADD14R,1.050000X1.100000*%
%ADD15R,0.600000X1.600000*%
%ADD16R,1.600000X0.600000*%
G04 APERTURE END LIST*
D10*
X39210000Y-146250000D03*
X41750000Y-146250000D03*
X44290000Y-146250000D03*
X39210000Y-123250000D03*
X41750000Y-123250000D03*
X44250000Y-123250000D03*
D11*
X85000000Y-126475000D03*
X85000000Y-123525000D03*
D12*
X83450000Y-125000000D03*
D13*
X61475000Y-115000000D03*
X58525000Y-115000000D03*
D14*
X60000000Y-116550000D03*
D11*
X85000000Y-139475000D03*
X85000000Y-136525000D03*
D12*
X83450000Y-138000000D03*
D15*
X76000000Y-144000000D03*
X75000000Y-144000000D03*
X74000000Y-144000000D03*
X73000000Y-144000000D03*
X72000000Y-144000000D03*
X71000000Y-144000000D03*
X70000000Y-144000000D03*
X69000000Y-144000000D03*
X68000000Y-144000000D03*
X67000000Y-144000000D03*
X66000000Y-144000000D03*
X65000000Y-144000000D03*
X64000000Y-144000000D03*
X63000000Y-144000000D03*
X62000000Y-144000000D03*
X61000000Y-144000000D03*
X60000000Y-144000000D03*
D16*
X56000000Y-140000000D03*
X56000000Y-139000000D03*
X56000000Y-138000000D03*
X56000000Y-137000000D03*
X56000000Y-136000000D03*
X56000000Y-135000000D03*
X56000000Y-134000000D03*
X56000000Y-133000000D03*
X56000000Y-132000000D03*
X56000000Y-131000000D03*
X56000000Y-130000000D03*
X56000000Y-129000000D03*
X56000000Y-128000000D03*
X56000000Y-127000000D03*
X56000000Y-126000000D03*
X56000000Y-125000000D03*
X56000000Y-124000000D03*
D15*
X60000000Y-120000000D03*
X61000000Y-120000000D03*
X62000000Y-120000000D03*
X63000000Y-120000000D03*
X64000000Y-120000000D03*
X65000000Y-120000000D03*
X66000000Y-120000000D03*
X67000000Y-120000000D03*
X68000000Y-120000000D03*
X69000000Y-120000000D03*
X70000000Y-120000000D03*
X71000000Y-120000000D03*
X72000000Y-120000000D03*
X73000000Y-120000000D03*
X74000000Y-120000000D03*
X75000000Y-120000000D03*
X76000000Y-120000000D03*
D16*
X80000000Y-124000000D03*
X80000000Y-125000000D03*
X80000000Y-126000000D03*
X80000000Y-127000000D03*
X80000000Y-128000000D03*
X80000000Y-129000000D03*
X80000000Y-130000000D03*
X80000000Y-131000000D03*
X80000000Y-132000000D03*
X80000000Y-133000000D03*
X80000000Y-134000000D03*
X80000000Y-135000000D03*
X80000000Y-136000000D03*
X80000000Y-137000000D03*
X80000000Y-138000000D03*
X80000000Y-139000000D03*
X80000000Y-140000000D03*
M02*
