M48
; DRILL file {KiCad (5.99.0-9519-ga70106a3bd)} date Thu Mar 11 21:54:59 2021
; FORMAT={-:-/ absolute / inch / decimal}
; #@! TF.CreationDate,2021-03-11T21:54:59+03:00
; #@! TF.GenerationSoftware,Kicad,Pcbnew,(5.99.0-9519-ga70106a3bd)
; #@! TF.FileFunction,Plated,1,4,PTH
FMAT,2
INCH
T1C0.0118
T2C0.0157
T3C0.0197
T4C0.0236
T5C0.0276
T6C0.0335
T7C0.0394
T8C0.1260
%
G90
G05
T1
X1.4213Y-5.3425
X1.4213Y-5.3937
X1.5256Y-4.9803
X1.5256Y-5.0984
X1.5276Y-4.7441
X1.5315Y-4.4488
X1.5512Y-3.3346
X1.5591Y-4.7441
X1.6535Y-5.1772
X1.6813Y-5.25
X1.6831Y-5.2067
X1.6857Y-5.0939
X1.708Y-5.0715
X1.7224Y-5.9744
X1.752Y-5.2559
X1.7717Y-4.4587
X1.8012Y-5.6496
X1.8012Y-5.6772
X1.811Y-5.315
X1.8209Y-5.0098
X1.8307Y-4.5177
X1.8307Y-4.5768
X1.8307Y-5.5906
X1.8406Y-3.7795
X1.8583Y-5.3543
X1.8583Y-5.5906
X1.8661Y-4.785
X1.8701Y-4.5768
X1.8996Y-4.9606
X1.9193Y-5.9744
X1.9291Y-5.6693
X1.9567Y-4.9606
X1.9646Y-4.0394
X1.9646Y-4.0709
X2.0Y-5.3543
X2.0Y-5.3937
X2.0Y-5.4921
X2.0177Y-5.5846
X2.0177Y-5.6122
X2.0276Y-4.5748
X2.0276Y-5.0591
X2.0394Y-4.2008
X2.0669Y-5.6791
X2.0945Y-4.3661
X2.1161Y-5.0394
X2.1161Y-5.0787
X2.1201Y-4.7283
X2.126Y-4.0551
X2.1378Y-4.5866
X2.1378Y-4.6161
X2.1457Y-4.9606
X2.1496Y-4.548
X2.1535Y-4.2913
X2.1732Y-4.0551
X2.185Y-4.5118
X2.2039Y-4.0545
X2.2244Y-4.7441
X2.248Y-3.9823
X2.2598Y-3.7805
X2.2835Y-4.3898
X2.2933Y-4.8524
X2.313Y-4.124
X2.313Y-4.1535
X2.313Y-4.3307
X2.313Y-4.3602
X2.315Y-4.6555
X2.3169Y-6.1594
X2.3228Y-4.8917
X2.3228Y-5.4528
X2.3425Y-4.3996
X2.3425Y-4.3307
X2.3425Y-4.3602
X2.3425Y-4.4567
X2.3524Y-3.75
X2.372Y-5.128
X2.374Y-4.4567
X2.3917Y-3.7894
X2.3917Y-5.1772
X2.3917Y-5.2894
X2.3917Y-5.4528
X2.4055Y-4.4567
X2.437Y-4.4567
X2.4606Y-5.0591
X2.4606Y-5.2894
X2.4606Y-5.4528
X2.4705Y-3.75
X2.4799Y-3.8724
X2.4803Y-3.8366
X2.4803Y-3.9154
X2.4803Y-3.9606
X2.4803Y-4.0039
X2.4902Y-5.128
X2.5197Y-4.9016
X2.5197Y-5.9252
X2.5295Y-5.2894
X2.5295Y-5.4528
X2.5354Y-4.4291
X2.5591Y-4.9016
X2.565Y-6.1594
X2.5787Y-4.122
X2.5787Y-5.9252
X2.5984Y-4.9016
X2.5984Y-5.2894
X2.5984Y-5.4528
X2.6063Y-4.1417
X2.6083Y-4.1831
X2.6417Y-4.0669
X2.6673Y-5.2894
X2.6673Y-5.4528
X2.6762Y-4.4833
X2.6762Y-4.5148
X2.6772Y-4.5669
X2.687Y-3.9783
X2.7028Y-3.748
X2.7067Y-4.5669
X2.7067Y-5.128
X2.7067Y-5.9843
X2.7165Y-5.748
X2.7193Y-3.9469
X2.7264Y-4.4882
X2.7362Y-4.252
X2.7362Y-4.5669
X2.7362Y-4.8031
X2.7362Y-5.4528
X2.7382Y-4.0354
X2.7382Y-4.0728
X2.7461Y-5.128
X2.752Y-5.9843
X2.7559Y-4.9016
X2.7657Y-4.3602
X2.7657Y-4.3996
X2.7657Y-4.439
X2.7756Y-4.8425
X2.7756Y-4.9606
X2.7854Y-5.128
X2.7953Y-5.748
X2.815Y-4.0
X2.815Y-4.9213
X2.8228Y-5.0591
X2.8543Y-4.1654
X2.8563Y-4.252
X2.8937Y-3.8583
X2.9134Y-4.6713
X2.9252Y-5.9252
X2.9429Y-4.3366
X2.9528Y-4.6713
X2.9626Y-4.1732
X2.9823Y-5.2264
X3.0Y-4.1968
X3.0Y-4.2284
X3.0236Y-4.3981
X3.065Y-4.398
X3.0866Y-3.9134
X3.189Y-3.9173
X3.189Y-3.8858
X3.189Y-5.9547
X3.1988Y-4.7323
X3.2991Y-4.7481
X3.3268Y-5.3248
X3.3268Y-5.5413
X3.3386Y-3.8404
X3.3661Y-5.3248
X3.3661Y-5.5413
X3.4882Y-4.5669
X3.5236Y-4.8819
X3.5827Y-4.0807
X3.6417Y-4.9409
X3.6417Y-4.9843
X3.7106Y-4.0748
X3.7638Y-4.0748
X3.7802Y-4.3616
X3.7992Y-3.9272
X3.7992Y-4.0138
X3.8025Y-4.3392
X3.8425Y-3.9606
X3.9173Y-5.0394
X3.9469Y-4.9409
X3.9469Y-5.1181
T2
X3.3465Y-4.9114
X3.3465Y-5.0315
X3.3917Y-5.0315
X3.9783Y-3.3583
T3
X1.2362Y-3.7008
X1.2639Y-3.634
X1.2639Y-3.7676
X1.3307Y-3.6063
X1.3307Y-3.7953
X1.3484Y-3.4134
X1.3484Y-3.5315
X1.3858Y-3.4134
X1.3858Y-3.5315
X1.3975Y-3.634
X1.3975Y-3.7676
X1.4173Y-5.1201
X1.4173Y-5.1555
X1.4252Y-3.7008
X1.4528Y-5.1201
X1.4528Y-5.1555
X1.5591Y-5.0182
X1.8898Y-4.3602
X2.0Y-4.1437
X2.0709Y-5.1299
X2.1299Y-4.8819
X2.1811Y-5.8465
X2.1811Y-5.8858
X2.2677Y-5.5118
X2.3189Y-4.7835
X2.3622Y-5.7579
X2.5591Y-4.8425
X2.7756Y-5.561
X2.7756Y-5.6004
X2.815Y-5.561
X2.815Y-5.6004
X2.8543Y-5.561
X2.8543Y-5.6004
X2.9331Y-5.561
X2.9331Y-5.6004
X2.9724Y-5.561
X2.9724Y-5.6004
X3.0118Y-5.561
X3.0118Y-5.6004
X3.0295Y-5.2854
X3.0295Y-5.4429
X3.0433Y-4.7244
X3.063Y-4.4429
X3.063Y-4.4902
X3.0768Y-5.2854
X3.0768Y-5.4429
X3.1063Y-4.4429
X3.1063Y-4.4902
X3.1496Y-4.252
X3.1496Y-4.2953
X3.1496Y-4.3386
X3.1496Y-4.4429
X3.1496Y-4.4902
X3.2283Y-4.8819
X3.2283Y-4.9606
X3.2283Y-5.315
X3.2283Y-5.3543
X3.2283Y-5.3937
X3.2283Y-5.4724
X3.2283Y-5.5118
X3.2421Y-4.5374
X3.2874Y-4.5374
X3.3346Y-4.5374
X3.3799Y-4.5374
X3.4724Y-5.6693
X3.4724Y-5.748
X3.4724Y-5.8268
X3.4783Y-4.3012
X3.4783Y-4.3406
X3.5197Y-4.3425
X3.5433Y-5.0197
X3.5433Y-5.0591
X3.5512Y-5.6693
X3.5512Y-5.748
X3.5512Y-5.8268
X3.5591Y-4.3425
X3.5984Y-4.3425
X3.6299Y-5.6693
X3.6299Y-5.748
X3.6299Y-5.8268
X3.6378Y-4.3425
X3.6929Y-4.1732
X3.7087Y-5.6693
X3.7087Y-5.748
X3.7087Y-5.8268
X3.7362Y-4.1732
X3.7795Y-4.1732
X3.7795Y-4.6063
X3.7874Y-5.6693
X3.7874Y-5.748
X3.7874Y-5.8268
X3.8189Y-4.6063
X3.8346Y-5.0394
X3.8346Y-5.0866
X3.8583Y-4.6063
X3.8622Y-4.3287
X3.8622Y-4.3642
X3.8701Y-5.1969
X3.8819Y-6.1417
X3.8976Y-4.3287
X3.8976Y-4.3642
X3.9096Y-6.0749
X3.9096Y-6.2085
X3.9764Y-6.0472
X3.9764Y-6.2362
X4.0432Y-6.0749
X4.0432Y-6.2085
X4.0709Y-6.1417
T5
X3.6299Y-5.5197
X3.6953Y-4.7933
X3.6953Y-5.0787
X3.7598Y-4.7933
X3.7598Y-5.0787
X3.7795Y-4.2323
T6
X1.3568Y-4.9705
X1.3568Y-5.1673
X3.9582Y-4.3169
X3.9582Y-4.5138
T7
X1.2598Y-5.8268
X1.2598Y-5.9268
X1.2697Y-4.3992
X1.2697Y-4.4992
X1.2697Y-4.5992
X1.2697Y-4.6992
X1.2697Y-4.7992
X1.2701Y-3.937
X1.2701Y-4.037
X1.2701Y-4.137
X1.2701Y-4.237
X1.2992Y-6.1811
X1.3701Y-3.937
X1.3701Y-4.037
X1.3701Y-4.137
X1.3701Y-4.237
X1.3992Y-6.1811
X1.4992Y-6.1811
X1.5417Y-3.6634
X1.5417Y-3.7634
X1.5417Y-3.8634
X1.5417Y-3.9634
X1.5992Y-6.1811
X1.6417Y-3.6634
X1.6417Y-3.7634
X1.6417Y-3.8634
X1.6417Y-3.9634
X1.6992Y-6.1811
X1.7874Y-3.6614
X1.7992Y-6.1811
X1.8425Y-3.4075
X1.8425Y-3.5075
X1.8874Y-3.6614
X1.9685Y-6.1811
X1.9882Y-3.4075
X1.9882Y-3.5075
X2.0362Y-3.6634
X2.0685Y-6.1811
X2.1339Y-3.4075
X2.1339Y-3.5075
X2.1362Y-3.6634
X2.1685Y-6.1811
X2.2362Y-3.6634
X2.315Y-3.4075
X2.315Y-3.5075
X2.3858Y-3.6634
X2.4606Y-3.4075
X2.4606Y-3.5075
X2.4858Y-3.6634
X2.5858Y-3.6634
X2.6063Y-3.4075
X2.6063Y-3.5075
X2.6858Y-3.6634
X2.7134Y-6.1811
X2.7858Y-3.6634
X2.8134Y-6.1811
X2.8858Y-3.6634
X2.9134Y-6.1811
X3.0354Y-3.6614
X3.0354Y-3.7614
X3.089Y-6.1811
X3.1063Y-3.4508
X3.1354Y-3.6614
X3.1354Y-3.7614
X3.1608Y-3.339
X3.189Y-6.1811
X3.2154Y-3.4508
X3.2354Y-3.6614
X3.2354Y-3.7614
X3.2699Y-3.339
X3.3244Y-3.4508
X3.3354Y-3.6614
X3.3354Y-3.7614
X3.3646Y-6.1811
X3.3789Y-3.339
X3.4335Y-3.4508
X3.4354Y-3.6614
X3.4354Y-3.7614
X3.4646Y-6.1811
X3.488Y-3.339
X3.5425Y-3.4508
X3.5819Y-3.6614
X3.5819Y-3.7614
X3.6402Y-6.1811
X3.6819Y-3.6614
X3.6819Y-3.7614
X3.7402Y-6.1811
X3.7819Y-3.6614
X3.7819Y-3.7614
X3.8819Y-3.6614
X3.8819Y-3.7614
X4.0551Y-3.8661
X4.0551Y-3.9661
X4.0551Y-4.0661
X4.0551Y-4.1661
X4.0551Y-4.685
X4.0551Y-4.785
X4.0551Y-4.885
X4.0551Y-4.985
X4.0551Y-5.1661
X4.0551Y-5.2661
X4.0551Y-5.3661
X4.0551Y-5.4661
X4.0551Y-5.5661
X4.0551Y-5.6661
X4.0551Y-5.7661
X4.0551Y-5.8661
T8
X1.3307Y-3.7008
X2.8323Y-3.439
X3.8165Y-3.439
X3.9764Y-6.1417
T4
G00X1.2367Y-4.9311
M15
G01X1.2643Y-4.9311
M16
G05
G00X1.2643Y-5.2067
M15
G01X1.2367Y-5.2067
M16
G05
G00X4.0507Y-4.2776
M15
G01X4.0782Y-4.2776
M16
G05
G00X4.0782Y-4.5531
M15
G01X4.0507Y-4.5531
M16
G05
T0
M30
