G04 #@! TF.GenerationSoftware,KiCad,Pcbnew,(5.99.0-9519-ga70106a3bd)*
G04 #@! TF.CreationDate,2021-03-11T21:55:01+03:00*
G04 #@! TF.ProjectId,UnderControl,556e6465-7243-46f6-9e74-726f6c2e6b69,rev?*
G04 #@! TF.SameCoordinates,Original*
G04 #@! TF.FileFunction,Copper,L4,Bot*
G04 #@! TF.FilePolarity,Positive*
%FSLAX46Y46*%
G04 Gerber Fmt 4.6, Leading zero omitted, Abs format (unit mm)*
G04 Created by KiCad (PCBNEW (5.99.0-9519-ga70106a3bd)) date 2021-03-11 21:55:01*
%MOMM*%
%LPD*%
G01*
G04 APERTURE LIST*
G04 #@! TA.AperFunction,ComponentPad*
%ADD10C,0.800000*%
G04 #@! TD*
G04 #@! TA.AperFunction,ComponentPad*
%ADD11C,6.400000*%
G04 #@! TD*
G04 #@! TA.AperFunction,ComponentPad*
%ADD12R,1.700000X1.700000*%
G04 #@! TD*
G04 #@! TA.AperFunction,ComponentPad*
%ADD13O,1.700000X1.700000*%
G04 #@! TD*
G04 #@! TA.AperFunction,ComponentPad*
%ADD14C,1.450000*%
G04 #@! TD*
G04 #@! TA.AperFunction,ComponentPad*
%ADD15O,1.900000X1.100000*%
G04 #@! TD*
G04 #@! TA.AperFunction,ComponentPad*
%ADD16C,4.000000*%
G04 #@! TD*
G04 #@! TA.AperFunction,ComponentPad*
%ADD17R,1.600000X1.600000*%
G04 #@! TD*
G04 #@! TA.AperFunction,ComponentPad*
%ADD18C,1.600000*%
G04 #@! TD*
G04 #@! TA.AperFunction,SMDPad,CuDef*
%ADD19R,1.500000X4.000000*%
G04 #@! TD*
G04 #@! TA.AperFunction,SMDPad,CuDef*
%ADD20R,2.250000X1.100000*%
G04 #@! TD*
G04 #@! TA.AperFunction,SMDPad,CuDef*
%ADD21R,1.100000X1.050000*%
G04 #@! TD*
G04 #@! TA.AperFunction,SMDPad,CuDef*
%ADD22R,1.100000X2.250000*%
G04 #@! TD*
G04 #@! TA.AperFunction,SMDPad,CuDef*
%ADD23R,1.050000X1.100000*%
G04 #@! TD*
G04 #@! TA.AperFunction,SMDPad,CuDef*
%ADD24R,0.600000X1.600000*%
G04 #@! TD*
G04 #@! TA.AperFunction,SMDPad,CuDef*
%ADD25R,1.600000X0.600000*%
G04 #@! TD*
G04 #@! TA.AperFunction,ViaPad*
%ADD26C,0.600000*%
G04 #@! TD*
G04 #@! TA.AperFunction,ViaPad*
%ADD27C,0.800000*%
G04 #@! TD*
G04 #@! TA.AperFunction,ViaPad*
%ADD28C,1.000000*%
G04 #@! TD*
G04 #@! TA.AperFunction,Conductor*
%ADD29C,0.293370*%
G04 #@! TD*
G04 #@! TA.AperFunction,Conductor*
%ADD30C,0.500000*%
G04 #@! TD*
G04 #@! TA.AperFunction,Conductor*
%ADD31C,1.000000*%
G04 #@! TD*
G04 #@! TA.AperFunction,Conductor*
%ADD32C,0.750000*%
G04 #@! TD*
G04 #@! TA.AperFunction,Conductor*
%ADD33C,0.300000*%
G04 #@! TD*
G04 #@! TA.AperFunction,Conductor*
%ADD34C,0.261112*%
G04 #@! TD*
G04 #@! TA.AperFunction,Conductor*
%ADD35C,0.250000*%
G04 #@! TD*
G04 APERTURE END LIST*
D10*
X35497056Y-95697056D03*
X32102944Y-92302944D03*
X35497056Y-92302944D03*
X31400000Y-94000000D03*
X32102944Y-95697056D03*
X33800000Y-96400000D03*
X33800000Y-91600000D03*
D11*
X33800000Y-94000000D03*
D10*
X36200000Y-94000000D03*
D12*
X56800000Y-93050000D03*
D13*
X54260000Y-93050000D03*
X51720000Y-93050000D03*
D12*
X95000000Y-157000000D03*
D13*
X92460000Y-157000000D03*
D12*
X103000000Y-149000000D03*
D13*
X103000000Y-146460000D03*
X103000000Y-143920000D03*
X103000000Y-141380000D03*
X103000000Y-138840000D03*
X103000000Y-136300000D03*
X103000000Y-133760000D03*
X103000000Y-131220000D03*
D12*
X32000000Y-148000000D03*
D13*
X32000000Y-150540000D03*
D12*
X74000000Y-157000000D03*
D13*
X71460000Y-157000000D03*
X68920000Y-157000000D03*
D12*
X88000000Y-157000000D03*
D13*
X85460000Y-157000000D03*
D12*
X50000000Y-157000000D03*
D13*
X52540000Y-157000000D03*
X55080000Y-157000000D03*
D14*
X34462500Y-131250000D03*
D15*
X31762500Y-125250000D03*
D14*
X34462500Y-126250000D03*
D15*
X31762500Y-132250000D03*
D12*
X77100000Y-93000000D03*
D13*
X77100000Y-95540000D03*
X79640000Y-93000000D03*
X79640000Y-95540000D03*
X82180000Y-93000000D03*
X82180000Y-95540000D03*
X84720000Y-93000000D03*
X84720000Y-95540000D03*
X87260000Y-93000000D03*
X87260000Y-95540000D03*
D12*
X45400000Y-93000000D03*
D13*
X47940000Y-93000000D03*
D12*
X73300000Y-93050000D03*
D13*
X70760000Y-93050000D03*
X68220000Y-93050000D03*
X65680000Y-93050000D03*
X63140000Y-93050000D03*
X60600000Y-93050000D03*
D12*
X39160000Y-93050000D03*
D13*
X41700000Y-93050000D03*
X39160000Y-95590000D03*
X41700000Y-95590000D03*
X39160000Y-98130000D03*
X41700000Y-98130000D03*
X39160000Y-100670000D03*
X41700000Y-100670000D03*
D12*
X98600000Y-93000000D03*
D13*
X98600000Y-95540000D03*
X96060000Y-93000000D03*
X96060000Y-95540000D03*
X93520000Y-93000000D03*
X93520000Y-95540000D03*
X90980000Y-93000000D03*
X90980000Y-95540000D03*
D12*
X46800000Y-86550000D03*
D13*
X46800000Y-89090000D03*
D12*
X50500000Y-86550000D03*
D13*
X50500000Y-89090000D03*
D12*
X66200000Y-86550000D03*
D13*
X66200000Y-89090000D03*
D12*
X62500000Y-86550000D03*
D13*
X62500000Y-89090000D03*
D12*
X58800000Y-86550000D03*
D13*
X58800000Y-89090000D03*
D16*
X71940000Y-87350000D03*
X96940000Y-87350000D03*
D17*
X78900000Y-87650000D03*
D18*
X81670000Y-87650000D03*
X84440000Y-87650000D03*
X87210000Y-87650000D03*
X89980000Y-87650000D03*
X80285000Y-84810000D03*
X83055000Y-84810000D03*
X85825000Y-84810000D03*
X88595000Y-84810000D03*
D12*
X54200000Y-86550000D03*
D13*
X54200000Y-89090000D03*
D12*
X32250000Y-121900000D03*
D13*
X32250000Y-119360000D03*
X32250000Y-116820000D03*
X32250000Y-114280000D03*
X32250000Y-111740000D03*
D12*
X81000000Y-157000000D03*
D13*
X78460000Y-157000000D03*
D10*
X101000000Y-158400000D03*
X101000000Y-153600000D03*
X103400000Y-156000000D03*
X102697056Y-157697056D03*
X102697056Y-154302944D03*
X99302944Y-157697056D03*
X98600000Y-156000000D03*
X99302944Y-154302944D03*
D11*
X101000000Y-156000000D03*
D12*
X103000000Y-98200000D03*
D13*
X103000000Y-100740000D03*
X103000000Y-103280000D03*
X103000000Y-105820000D03*
D14*
X100537500Y-109650000D03*
D15*
X103237500Y-115650000D03*
X103237500Y-108650000D03*
D14*
X100537500Y-114650000D03*
D12*
X103000000Y-119000000D03*
D13*
X103000000Y-121540000D03*
X103000000Y-124080000D03*
X103000000Y-126620000D03*
D12*
X34800000Y-100000000D03*
D13*
X32260000Y-100000000D03*
X34800000Y-102540000D03*
X32260000Y-102540000D03*
X34800000Y-105080000D03*
X32260000Y-105080000D03*
X34800000Y-107620000D03*
X32260000Y-107620000D03*
D12*
X33000000Y-157000000D03*
D13*
X35540000Y-157000000D03*
X38080000Y-157000000D03*
X40620000Y-157000000D03*
X43160000Y-157000000D03*
X45700000Y-157000000D03*
D19*
X39210000Y-146250000D03*
X41750000Y-146250000D03*
X44290000Y-146250000D03*
X39210000Y-123250000D03*
X41750000Y-123250000D03*
X44250000Y-123250000D03*
D20*
X85000000Y-126475000D03*
X85000000Y-123525000D03*
D21*
X83450000Y-125000000D03*
D22*
X61475000Y-115000000D03*
X58525000Y-115000000D03*
D23*
X60000000Y-116550000D03*
D20*
X85000000Y-139475000D03*
X85000000Y-136525000D03*
D21*
X83450000Y-138000000D03*
D24*
X76000000Y-144000000D03*
X75000000Y-144000000D03*
X74000000Y-144000000D03*
X73000000Y-144000000D03*
X72000000Y-144000000D03*
X71000000Y-144000000D03*
X70000000Y-144000000D03*
X69000000Y-144000000D03*
X68000000Y-144000000D03*
X67000000Y-144000000D03*
X66000000Y-144000000D03*
X65000000Y-144000000D03*
X64000000Y-144000000D03*
X63000000Y-144000000D03*
X62000000Y-144000000D03*
X61000000Y-144000000D03*
X60000000Y-144000000D03*
D25*
X56000000Y-140000000D03*
X56000000Y-139000000D03*
X56000000Y-138000000D03*
X56000000Y-137000000D03*
X56000000Y-136000000D03*
X56000000Y-135000000D03*
X56000000Y-134000000D03*
X56000000Y-133000000D03*
X56000000Y-132000000D03*
X56000000Y-131000000D03*
X56000000Y-130000000D03*
X56000000Y-129000000D03*
X56000000Y-128000000D03*
X56000000Y-127000000D03*
X56000000Y-126000000D03*
X56000000Y-125000000D03*
X56000000Y-124000000D03*
D24*
X60000000Y-120000000D03*
X61000000Y-120000000D03*
X62000000Y-120000000D03*
X63000000Y-120000000D03*
X64000000Y-120000000D03*
X65000000Y-120000000D03*
X66000000Y-120000000D03*
X67000000Y-120000000D03*
X68000000Y-120000000D03*
X69000000Y-120000000D03*
X70000000Y-120000000D03*
X71000000Y-120000000D03*
X72000000Y-120000000D03*
X73000000Y-120000000D03*
X74000000Y-120000000D03*
X75000000Y-120000000D03*
X76000000Y-120000000D03*
D25*
X80000000Y-124000000D03*
X80000000Y-125000000D03*
X80000000Y-126000000D03*
X80000000Y-127000000D03*
X80000000Y-128000000D03*
X80000000Y-129000000D03*
X80000000Y-130000000D03*
X80000000Y-131000000D03*
X80000000Y-132000000D03*
X80000000Y-133000000D03*
X80000000Y-134000000D03*
X80000000Y-135000000D03*
X80000000Y-136000000D03*
X80000000Y-137000000D03*
X80000000Y-138000000D03*
X80000000Y-139000000D03*
X80000000Y-140000000D03*
D26*
X65150000Y-156450000D03*
X83797500Y-120602500D03*
D27*
X34250000Y-86700000D03*
D26*
X55500000Y-114600000D03*
X68750000Y-116000000D03*
D27*
X98300000Y-132000000D03*
X50800000Y-105250000D03*
X92200000Y-148000000D03*
X99000000Y-110850000D03*
D26*
X63250000Y-130250000D03*
D27*
X88200000Y-146000000D03*
D26*
X38800000Y-120500000D03*
D27*
X78150000Y-138250000D03*
X97400000Y-128000000D03*
X98100000Y-109950000D03*
X74500000Y-142250000D03*
X90200000Y-148000000D03*
D26*
X69071330Y-100250010D03*
X60250000Y-130250000D03*
X85500000Y-135250000D03*
D27*
X74500000Y-141250000D03*
D26*
X54600000Y-115520000D03*
X57100000Y-101150000D03*
D27*
X82000000Y-137000000D03*
D26*
X84799957Y-97545311D03*
X74300000Y-150500000D03*
X68250000Y-101050000D03*
D27*
X82000000Y-140000000D03*
X90000000Y-128500000D03*
D26*
X94250000Y-103500000D03*
D27*
X76500000Y-141250000D03*
D26*
X51500000Y-128500000D03*
X59500000Y-113200000D03*
D27*
X89400000Y-110300000D03*
D26*
X50800000Y-136000000D03*
D27*
X75500000Y-141250000D03*
D26*
X59500000Y-110750000D03*
D27*
X96200000Y-146000000D03*
X88350000Y-110250000D03*
X97400000Y-129200000D03*
D26*
X47200000Y-142000000D03*
X72500000Y-105800000D03*
D27*
X82000000Y-139000000D03*
D26*
X85500000Y-140750000D03*
X84500000Y-135250000D03*
X48250000Y-126000000D03*
D27*
X88200000Y-144000000D03*
D26*
X58850000Y-156450000D03*
D27*
X80000000Y-112850000D03*
D26*
X51500000Y-116200000D03*
D27*
X78900000Y-114050000D03*
X35200000Y-86700000D03*
X98100000Y-110850000D03*
X88350000Y-109250000D03*
X58900000Y-121500000D03*
X98000000Y-117000000D03*
X90000000Y-127500000D03*
X65000000Y-123000000D03*
X92400000Y-110300000D03*
X36900000Y-130050000D03*
X90200000Y-146000000D03*
X85000000Y-124750000D03*
X57600000Y-140000000D03*
X94200000Y-148000000D03*
X96000000Y-117000000D03*
D26*
X46500000Y-142000000D03*
D27*
X36900000Y-130950000D03*
D26*
X45750000Y-144200000D03*
X58750000Y-104750000D03*
X77850000Y-111710000D03*
D27*
X92200000Y-144000000D03*
X90200000Y-144000000D03*
D26*
X36100000Y-137000000D03*
D27*
X92200000Y-146000000D03*
X36000000Y-130950000D03*
X88200000Y-148000000D03*
X55400000Y-149500000D03*
X96200000Y-144000000D03*
D26*
X71000000Y-146000000D03*
D27*
X76500000Y-142250000D03*
X52600000Y-130300000D03*
D26*
X69500000Y-116000000D03*
X58750000Y-110000000D03*
D27*
X36000000Y-130050000D03*
D26*
X54000000Y-103000000D03*
D27*
X91400000Y-110300000D03*
D26*
X73500000Y-98000000D03*
D27*
X75500000Y-142250000D03*
D26*
X46500000Y-114750000D03*
X36100000Y-135700000D03*
X60300000Y-113200000D03*
D27*
X85000000Y-127800000D03*
X78150000Y-134250000D03*
X82000000Y-124000000D03*
X48000004Y-110750000D03*
D26*
X84500000Y-140750000D03*
D27*
X82000000Y-135000000D03*
D26*
X68000000Y-116000000D03*
D27*
X80000000Y-114050000D03*
D26*
X69750000Y-130250000D03*
D27*
X94200000Y-144000000D03*
X77800000Y-114050000D03*
X76950000Y-134250000D03*
D26*
X47200000Y-136000000D03*
X61900000Y-113200000D03*
X57400000Y-96025000D03*
D27*
X54100000Y-124000000D03*
D26*
X58750000Y-110750000D03*
D27*
X96200000Y-148000000D03*
D26*
X39400000Y-84700000D03*
X39600000Y-120500000D03*
X58750000Y-105500000D03*
X61100000Y-113200000D03*
X51250000Y-141850000D03*
X59500000Y-110000000D03*
D28*
X92200000Y-140200000D03*
D27*
X97000000Y-117000000D03*
D26*
X45750000Y-143500000D03*
D27*
X94200000Y-146000000D03*
X55400000Y-148500000D03*
X99000000Y-109950000D03*
X82000000Y-126000000D03*
X86150000Y-127800000D03*
D26*
X71500000Y-101600000D03*
D27*
X82000000Y-136000000D03*
D26*
X76800000Y-111712500D03*
D27*
X101050000Y-85300000D03*
X77300000Y-120000000D03*
X77800000Y-112850000D03*
D26*
X51250000Y-142550000D03*
D27*
X76950000Y-138250000D03*
D26*
X47400000Y-121540000D03*
D27*
X78900000Y-112850000D03*
X90400000Y-110300000D03*
D28*
X93860000Y-129000000D03*
X95500000Y-129000000D03*
X95500000Y-121750000D03*
X93860000Y-121750000D03*
X96000000Y-107500000D03*
D26*
X72550033Y-108000000D03*
X88600000Y-116000000D03*
D27*
X70500000Y-141250000D03*
X71500000Y-141250000D03*
X72500000Y-141250000D03*
X72500000Y-142250000D03*
X71500000Y-142250000D03*
X70500000Y-142250000D03*
D26*
X80999998Y-99500000D03*
X66199990Y-105200000D03*
D27*
X60000000Y-146250000D03*
D26*
X53750000Y-128000000D03*
X46250000Y-127250000D03*
X42000000Y-131500000D03*
X53750000Y-129000000D03*
X50800000Y-139500000D03*
X50800000Y-137000000D03*
X49000000Y-144000000D03*
X52500000Y-144250004D03*
X75250000Y-106000000D03*
X74749992Y-110150000D03*
X76200000Y-106598400D03*
X96583975Y-110216025D03*
X96016025Y-110783975D03*
X76200000Y-107401600D03*
X49899996Y-102600000D03*
X58000000Y-111500000D03*
X45000000Y-113250000D03*
X53200005Y-110900005D03*
X49900000Y-103400000D03*
X54700000Y-109000000D03*
X48750000Y-151750000D03*
X43750000Y-151750000D03*
X42816025Y-129383975D03*
X43383975Y-128816025D03*
X58800000Y-118250000D03*
X68750000Y-152000000D03*
X59000000Y-138500000D03*
X69900000Y-152000000D03*
X60750000Y-138500000D03*
X69000000Y-146000000D03*
X42750000Y-132250000D03*
X63000000Y-101700000D03*
X63000000Y-100600000D03*
X75000000Y-118650000D03*
X74000000Y-118650000D03*
X58250000Y-123250000D03*
X71700000Y-128500000D03*
X75750000Y-132750000D03*
X64400000Y-112500000D03*
X60750000Y-134350000D03*
X69500000Y-122000000D03*
X60750000Y-131500000D03*
X62500000Y-138500000D03*
X56500000Y-120500000D03*
X59000000Y-124250000D03*
X62500000Y-134350000D03*
X59499978Y-111750012D03*
X54500000Y-126000000D03*
X64250000Y-138500000D03*
X70500000Y-123000000D03*
X64250000Y-134350000D03*
X69500000Y-138500000D03*
X71500000Y-125000000D03*
X68750000Y-130250000D03*
X66000000Y-138500000D03*
X66000000Y-134350000D03*
X70000000Y-124500000D03*
X67750000Y-138500000D03*
X70500000Y-126000000D03*
X67750000Y-134350000D03*
X91000000Y-103650000D03*
X97600000Y-100600000D03*
X67100000Y-103300000D03*
X78399998Y-99399957D03*
X65500000Y-104700000D03*
X81000000Y-98700000D03*
X96500000Y-101950000D03*
D27*
X35200000Y-89700000D03*
X34250000Y-89700000D03*
D26*
X95600000Y-103500000D03*
X96500000Y-99750000D03*
X54300000Y-117250000D03*
X67975000Y-114675000D03*
D27*
X84700000Y-115250000D03*
D26*
X47500000Y-116250000D03*
X55980000Y-102985000D03*
D27*
X82350000Y-115250000D03*
X93800000Y-106000000D03*
D26*
X67975000Y-113875000D03*
X55200000Y-103000000D03*
X69550000Y-103450000D03*
D27*
X80000000Y-109100000D03*
D26*
X69550000Y-102500010D03*
D27*
X94900000Y-106000000D03*
X80000000Y-110200000D03*
X96000000Y-106000000D03*
X85850000Y-115250000D03*
D26*
X53850000Y-120100000D03*
D27*
X83500000Y-115250000D03*
D26*
X46500000Y-116250000D03*
D27*
X80000000Y-108000000D03*
D26*
X54300000Y-116500000D03*
D27*
X39600000Y-127462278D03*
D26*
X46750000Y-96000000D03*
X63000000Y-99450000D03*
X62990373Y-98359627D03*
X63000000Y-97450000D03*
X66250000Y-106250000D03*
X69500000Y-108000000D03*
X70250000Y-110750000D03*
X70250000Y-111750000D03*
X70250000Y-112750000D03*
X69250000Y-114000000D03*
X60750000Y-96250000D03*
X68650000Y-95200000D03*
X59750000Y-95250000D03*
X62750000Y-95250000D03*
X51800004Y-106700000D03*
X38900000Y-113000000D03*
X42704615Y-133349990D03*
X38750000Y-126500000D03*
X38750000Y-129500000D03*
X49700000Y-126000000D03*
X44500000Y-133500000D03*
X45999996Y-134999996D03*
X92500000Y-125500000D03*
X100250000Y-125500000D03*
X81250000Y-120200000D03*
X89500000Y-124000000D03*
X92500000Y-126600000D03*
X100250000Y-130000000D03*
X99500000Y-128000000D03*
X70750000Y-130250000D03*
X66000000Y-124500000D03*
X81000000Y-151250000D03*
X65000000Y-124500000D03*
X64000000Y-124500000D03*
X65500000Y-150500000D03*
X64000000Y-150500000D03*
X62500000Y-128500000D03*
D29*
X85500000Y-140750000D02*
X84500000Y-140750000D01*
D30*
X61000000Y-121300000D02*
X61000000Y-120000000D01*
D29*
X85500000Y-135250000D02*
X85500000Y-136025000D01*
D31*
X76500000Y-142250000D02*
X74500000Y-142250000D01*
D32*
X75000000Y-142750000D02*
X75500000Y-142250000D01*
D30*
X58900000Y-121500000D02*
X60800000Y-121500000D01*
D29*
X85500000Y-140750000D02*
X85500000Y-139975000D01*
X85500000Y-135250000D02*
X84500000Y-135250000D01*
D32*
X74000000Y-142750000D02*
X74500000Y-142250000D01*
D33*
X38800000Y-120500000D02*
X38800000Y-122840000D01*
D32*
X76000000Y-141750000D02*
X76500000Y-141250000D01*
D29*
X84500000Y-140750000D02*
X84500000Y-139975000D01*
D32*
X75000000Y-141750000D02*
X75500000Y-141250000D01*
D29*
X60300000Y-113200000D02*
X59500000Y-113200000D01*
D32*
X76000000Y-144000000D02*
X76000000Y-141750000D01*
D30*
X56000000Y-130000000D02*
X52900000Y-130000000D01*
D29*
X61900000Y-113200000D02*
X61100000Y-113200000D01*
D30*
X56000000Y-124000000D02*
X54100000Y-124000000D01*
D29*
X85000000Y-124750000D02*
X85000000Y-123525000D01*
D33*
X38800000Y-122840000D02*
X39210000Y-123250000D01*
D32*
X74000000Y-144000000D02*
X76000000Y-144000000D01*
X75000000Y-144000000D02*
X75000000Y-142750000D01*
D33*
X39600000Y-120500000D02*
X38800000Y-120500000D01*
D32*
X74000000Y-141750000D02*
X74500000Y-141250000D01*
D33*
X39600000Y-120500000D02*
X39600000Y-122860000D01*
D29*
X59500000Y-113200000D02*
X59050000Y-113200000D01*
D30*
X57600000Y-140000000D02*
X56000000Y-140000000D01*
D29*
X61475000Y-113625000D02*
X61900000Y-113200000D01*
X61475000Y-115000000D02*
X61475000Y-113625000D01*
X85500000Y-136025000D02*
X85000000Y-136525000D01*
D32*
X76000000Y-142750000D02*
X76500000Y-142250000D01*
X75000000Y-144000000D02*
X75000000Y-141750000D01*
D29*
X85000000Y-127800000D02*
X85000000Y-126475000D01*
X58525000Y-113725000D02*
X59050000Y-113200000D01*
D32*
X74000000Y-144000000D02*
X74000000Y-141750000D01*
D30*
X82000000Y-126000000D02*
X80000000Y-126000000D01*
X80000000Y-137000000D02*
X82000000Y-137000000D01*
X60800000Y-121500000D02*
X61000000Y-121300000D01*
X52900000Y-130000000D02*
X52600000Y-130300000D01*
D29*
X84500000Y-136025000D02*
X85000000Y-136525000D01*
X58525000Y-115000000D02*
X58525000Y-113725000D01*
D31*
X76500000Y-141250000D02*
X74500000Y-141250000D01*
D30*
X80000000Y-140000000D02*
X82000000Y-140000000D01*
D29*
X61100000Y-113200000D02*
X60300000Y-113200000D01*
X85500000Y-139975000D02*
X85000000Y-139475000D01*
X84500000Y-139975000D02*
X85000000Y-139475000D01*
D30*
X76000000Y-120000000D02*
X77300000Y-120000000D01*
X80000000Y-136000000D02*
X82000000Y-136000000D01*
X82000000Y-124000000D02*
X80000000Y-124000000D01*
D32*
X76000000Y-144000000D02*
X76000000Y-142750000D01*
D31*
X74500000Y-142250000D02*
X74500000Y-141250000D01*
D29*
X84500000Y-135250000D02*
X84500000Y-136025000D01*
D30*
X80000000Y-139000000D02*
X82000000Y-139000000D01*
D32*
X74000000Y-144000000D02*
X74000000Y-142750000D01*
D31*
X76500000Y-142250000D02*
X76500000Y-141250000D01*
D33*
X39600000Y-122860000D02*
X39210000Y-123250000D01*
D30*
X65000000Y-120000000D02*
X65000000Y-123000000D01*
X96000000Y-107500000D02*
X101000000Y-102500000D01*
X64890000Y-91300000D02*
X63140000Y-93050000D01*
X101000000Y-92889980D02*
X99410020Y-91300000D01*
X96060000Y-93000000D02*
X97760000Y-91300000D01*
D33*
X88450000Y-116150000D02*
X77350000Y-116150000D01*
D30*
X99410020Y-91300000D02*
X64890000Y-91300000D01*
X101000000Y-102500000D02*
X101000000Y-92889980D01*
D33*
X77350000Y-116150000D02*
X72550033Y-111350033D01*
X72550033Y-111350033D02*
X72550033Y-108000000D01*
D30*
X99410020Y-91300000D02*
X97760000Y-91300000D01*
D31*
X93860000Y-129000000D02*
X93860000Y-121750000D01*
D33*
X88600000Y-116000000D02*
X88450000Y-116150000D01*
D31*
X95500000Y-129000000D02*
X95500000Y-121750000D01*
D32*
X73000000Y-142750000D02*
X72500000Y-142250000D01*
X72000000Y-141750000D02*
X71500000Y-141250000D01*
X72000000Y-144000000D02*
X72000000Y-141750000D01*
X73000000Y-144000000D02*
X73000000Y-142750000D01*
X71000000Y-144000000D02*
X71000000Y-142750000D01*
X71000000Y-141750000D02*
X70500000Y-141250000D01*
X72000000Y-142750000D02*
X71500000Y-142250000D01*
X71000000Y-142750000D02*
X70500000Y-142250000D01*
X71000000Y-144000000D02*
X71000000Y-141750000D01*
X71000000Y-144000000D02*
X73000000Y-144000000D01*
X73000000Y-141750000D02*
X72500000Y-141250000D01*
X73000000Y-144000000D02*
X73000000Y-141750000D01*
X72000000Y-144000000D02*
X72000000Y-142750000D01*
D33*
X74078635Y-100049999D02*
X80449999Y-100049999D01*
X68928634Y-105200000D02*
X74078635Y-100049999D01*
X80449999Y-100049999D02*
X80999998Y-99500000D01*
X66199990Y-105200000D02*
X68928634Y-105200000D01*
D30*
X60000000Y-144000000D02*
X60000000Y-146250000D01*
D33*
X56000000Y-128000000D02*
X53750000Y-128000000D01*
X46250000Y-127250000D02*
X46500000Y-127000000D01*
X46500000Y-127000000D02*
X56000000Y-127000000D01*
X56000000Y-129000000D02*
X53750000Y-129000000D01*
X39210000Y-146250000D02*
X38850000Y-145890000D01*
X38850000Y-134650000D02*
X42000000Y-131500000D01*
X38850000Y-145890000D02*
X38850000Y-134650000D01*
X53500000Y-137000000D02*
X56000000Y-137000000D01*
X50800000Y-139500000D02*
X51000000Y-139500000D01*
X51000000Y-139500000D02*
X53500000Y-137000000D01*
X51800000Y-136000000D02*
X56000000Y-136000000D01*
X50800000Y-137000000D02*
X51800000Y-136000000D01*
X53700000Y-138000000D02*
X49000000Y-142700000D01*
X49000000Y-142700000D02*
X49000000Y-144000000D01*
X56000000Y-138000000D02*
X53700000Y-138000000D01*
X56000000Y-139000000D02*
X54900000Y-139000000D01*
X54900000Y-139000000D02*
X52500000Y-141400000D01*
X52500000Y-141400000D02*
X52500000Y-144250004D01*
X75250000Y-109649992D02*
X75250000Y-106000000D01*
X74749992Y-110150000D02*
X75250000Y-109649992D01*
D34*
X92896163Y-106767844D02*
X76369444Y-106767844D01*
X96583975Y-110216025D02*
X96344344Y-110216025D01*
X76369444Y-106767844D02*
X76200000Y-106598400D01*
X96344344Y-110216025D02*
X92896163Y-106767844D01*
X96016025Y-110544344D02*
X92703837Y-107232156D01*
X96016025Y-110783975D02*
X96016025Y-110544344D01*
X92703837Y-107232156D02*
X76369444Y-107232156D01*
X76369444Y-107232156D02*
X76200000Y-107401600D01*
D33*
X58000000Y-109675736D02*
X50924264Y-102600000D01*
X58000000Y-111500000D02*
X58000000Y-109675736D01*
X50924264Y-102600000D02*
X49899996Y-102600000D01*
X45000000Y-113250000D02*
X50850010Y-113250000D01*
X50850010Y-113250000D02*
X53200005Y-110900005D01*
X54700000Y-109000000D02*
X54700000Y-107625736D01*
X54700000Y-107625736D02*
X50474264Y-103400000D01*
X50474264Y-103400000D02*
X49900000Y-103400000D01*
X43750000Y-151750000D02*
X48750000Y-151750000D01*
D34*
X54799999Y-132000000D02*
X54532155Y-131732156D01*
X45403837Y-131732156D02*
X43055656Y-129383975D01*
X54532155Y-131732156D02*
X45403837Y-131732156D01*
X56000000Y-132000000D02*
X54799999Y-132000000D01*
X43055656Y-129383975D02*
X42816025Y-129383975D01*
X54799999Y-131000000D02*
X54532155Y-131267844D01*
X43383975Y-129055656D02*
X43383975Y-128816025D01*
X56000000Y-131000000D02*
X54799999Y-131000000D01*
X45596163Y-131267844D02*
X43383975Y-129055656D01*
X54532155Y-131267844D02*
X45596163Y-131267844D01*
D29*
X60000000Y-116550000D02*
X60000000Y-117050000D01*
X60000000Y-116550000D02*
X60000000Y-120000000D01*
D35*
X60000000Y-116550000D02*
X60000000Y-117350000D01*
D29*
X60000000Y-117050000D02*
X58800000Y-118250000D01*
X80000000Y-138000000D02*
X83450000Y-138000000D01*
X83450000Y-125000000D02*
X80000000Y-125000000D01*
D33*
X62000000Y-141500000D02*
X62000000Y-144000000D01*
X62000000Y-145250000D02*
X62000000Y-144000000D01*
X59000000Y-138500000D02*
X62000000Y-141500000D01*
X68750000Y-152000000D02*
X62000000Y-145250000D01*
X63000000Y-145100000D02*
X63000000Y-144000000D01*
X60750000Y-138500000D02*
X63000000Y-140750000D01*
X69900000Y-152000000D02*
X63000000Y-145100000D01*
X63000000Y-140750000D02*
X63000000Y-144000000D01*
X69000000Y-144000000D02*
X69000000Y-146000000D01*
X41750000Y-133250000D02*
X42750000Y-132250000D01*
X41750000Y-146250000D02*
X41750000Y-133250000D01*
X63000000Y-101700000D02*
X60700031Y-99400031D01*
X60700031Y-99400031D02*
X40520031Y-99400031D01*
X40520031Y-99400031D02*
X39250000Y-98130000D01*
X61200000Y-98800000D02*
X42460000Y-98800000D01*
X63000000Y-100600000D02*
X61200000Y-98800000D01*
X42460000Y-98800000D02*
X41790000Y-98130000D01*
X75000000Y-120000000D02*
X75000000Y-118650000D01*
X74000000Y-120000000D02*
X74000000Y-118650000D01*
X58250000Y-123250000D02*
X60300000Y-123250000D01*
X62000000Y-121550000D02*
X62000000Y-120000000D01*
X60300000Y-123250000D02*
X62000000Y-121550000D01*
X75750000Y-132750000D02*
X75750000Y-132550000D01*
X75750000Y-132550000D02*
X71700000Y-128500000D01*
X57475001Y-131075001D02*
X60750000Y-134350000D01*
X58719998Y-112500000D02*
X57475001Y-113744997D01*
X57475001Y-113744997D02*
X57475001Y-131075001D01*
X64400000Y-112500000D02*
X58719998Y-112500000D01*
X69500000Y-122750000D02*
X60750000Y-131500000D01*
X69500000Y-122000000D02*
X69500000Y-122750000D01*
X64000000Y-140000000D02*
X64000000Y-144000000D01*
X62500000Y-138500000D02*
X64000000Y-140000000D01*
X58762864Y-111750012D02*
X59499978Y-111750012D01*
X59000000Y-124250000D02*
X59000000Y-131000000D01*
X56500000Y-114012876D02*
X58762864Y-111750012D01*
X56500000Y-120500000D02*
X56500000Y-114012876D01*
X62350000Y-134350000D02*
X62500000Y-134350000D01*
X59000000Y-131000000D02*
X62350000Y-134350000D01*
X56000000Y-126000000D02*
X54500000Y-126000000D01*
X64250000Y-138500000D02*
X65000000Y-139250000D01*
X65000000Y-139250000D02*
X65000000Y-144000000D01*
X64250000Y-129250000D02*
X64250000Y-134350000D01*
X70500000Y-123000000D02*
X64250000Y-129250000D01*
X69500000Y-138500000D02*
X68000000Y-140000000D01*
X68000000Y-140000000D02*
X68000000Y-144000000D01*
X71500000Y-127500000D02*
X68750000Y-130250000D01*
X71500000Y-125000000D02*
X71500000Y-127500000D01*
X66000000Y-138500000D02*
X66000000Y-144000000D01*
X66000000Y-128500000D02*
X66000000Y-134350000D01*
X70000000Y-124500000D02*
X66000000Y-128500000D01*
X67750000Y-138500000D02*
X67000000Y-139250000D01*
X67000000Y-139250000D02*
X67000000Y-144000000D01*
X70500000Y-126000000D02*
X67750000Y-128750000D01*
X67750000Y-128750000D02*
X67750000Y-134350000D01*
X97600000Y-100600000D02*
X94050000Y-100600000D01*
X94050000Y-100600000D02*
X91000000Y-103650000D01*
X67100000Y-103300000D02*
X71000043Y-99399957D01*
X71000043Y-99399957D02*
X78399998Y-99399957D01*
X65500000Y-102375736D02*
X69175736Y-98700000D01*
X69175736Y-98700000D02*
X81000000Y-98700000D01*
X65500000Y-104700000D02*
X65500000Y-102375736D01*
D30*
X39600000Y-127462278D02*
X45137722Y-133000000D01*
X45137722Y-133000000D02*
X56000000Y-133000000D01*
D33*
X47940000Y-94810000D02*
X47940000Y-93000000D01*
X46750000Y-96000000D02*
X47940000Y-94810000D01*
X61750000Y-98200000D02*
X43800000Y-98200000D01*
X42450000Y-96850000D02*
X40510000Y-96850000D01*
X40510000Y-96850000D02*
X39250000Y-95590000D01*
X63000000Y-99450000D02*
X61750000Y-98200000D01*
X43800000Y-98200000D02*
X42450000Y-96850000D01*
X41790000Y-95590000D02*
X42640000Y-95590000D01*
X42640000Y-95590000D02*
X44650000Y-97600000D01*
X44650000Y-97600000D02*
X62230746Y-97600000D01*
X62230746Y-97600000D02*
X62990373Y-98359627D01*
X42600000Y-93050000D02*
X41790000Y-93050000D01*
X63000000Y-97450000D02*
X62550000Y-97000000D01*
X46550000Y-97000000D02*
X42600000Y-93050000D01*
X62550000Y-97000000D02*
X46550000Y-97000000D01*
X74367878Y-100550000D02*
X84335756Y-100550000D01*
X89100000Y-95785756D02*
X89100000Y-94880000D01*
X84335756Y-100550000D02*
X89100000Y-95785756D01*
X66250000Y-106250000D02*
X68667878Y-106250000D01*
X89100000Y-94880000D02*
X90980000Y-93000000D01*
X68667878Y-106250000D02*
X74367878Y-100550000D01*
X90543997Y-94200001D02*
X92319999Y-94200001D01*
X69500000Y-108000000D02*
X69500000Y-106250000D01*
X84542878Y-101050000D02*
X89700000Y-95892878D01*
X74700000Y-101050000D02*
X84542878Y-101050000D01*
X89700000Y-95892878D02*
X89700000Y-95043998D01*
X69500000Y-106250000D02*
X74700000Y-101050000D01*
X89700000Y-95043998D02*
X90543997Y-94200001D01*
X92319999Y-94200001D02*
X93520000Y-93000000D01*
X75000000Y-101550000D02*
X70250000Y-106300000D01*
X90980000Y-95540000D02*
X84970000Y-101550000D01*
X84970000Y-101550000D02*
X75000000Y-101550000D01*
X70250000Y-106300000D02*
X70250000Y-110750000D01*
X86960000Y-102100000D02*
X75250000Y-102100000D01*
X75250000Y-102100000D02*
X70900001Y-106449999D01*
X70900001Y-106449999D02*
X70900001Y-111099999D01*
X70900001Y-111099999D02*
X70250000Y-111750000D01*
X93520000Y-95540000D02*
X86960000Y-102100000D01*
X71892878Y-106700000D02*
X71400012Y-107192866D01*
X71400012Y-111599988D02*
X70250000Y-112750000D01*
X71400012Y-107192866D02*
X71400012Y-111599988D01*
X95460000Y-95540000D02*
X86300000Y-104700000D01*
X74592878Y-104700000D02*
X72592878Y-106700000D01*
X96060000Y-95540000D02*
X95460000Y-95540000D01*
X72592878Y-106700000D02*
X71892878Y-106700000D01*
X86300000Y-104700000D02*
X74592878Y-104700000D01*
X86700000Y-105300000D02*
X74800000Y-105300000D01*
X74800000Y-105300000D02*
X72850000Y-107250000D01*
X71900023Y-107399977D02*
X71900023Y-112099977D01*
X70000000Y-114000000D02*
X69250000Y-114000000D01*
X97399989Y-96740011D02*
X95259989Y-96740011D01*
X72850000Y-107250000D02*
X72050000Y-107250000D01*
X95259989Y-96740011D02*
X86700000Y-105300000D01*
X98600000Y-95540000D02*
X97399989Y-96740011D01*
X71900023Y-112099977D02*
X70000000Y-114000000D01*
X72050000Y-107250000D02*
X71900023Y-107399977D01*
X65980165Y-96220290D02*
X65916756Y-96242478D01*
X66637046Y-95480005D02*
X66580165Y-95444264D01*
X66084549Y-96137046D02*
X66037046Y-96184549D01*
X66262953Y-95480005D02*
X66215450Y-95527508D01*
X66750000Y-95950000D02*
X66750000Y-95714555D01*
X68650000Y-95200000D02*
X67600000Y-96250000D01*
X66580165Y-95444264D02*
X66516756Y-95422076D01*
X66983243Y-96242478D02*
X66919834Y-96220290D01*
X64862631Y-96250000D02*
X60750000Y-96250000D01*
X66120290Y-96080165D02*
X66084549Y-96137046D01*
X66383243Y-95422076D02*
X66319834Y-95444264D01*
X66742478Y-95647798D02*
X66720290Y-95584389D01*
X66142478Y-96016756D02*
X66120290Y-96080165D01*
X66215450Y-95527508D02*
X66179709Y-95584389D01*
X66919834Y-96220290D02*
X66862953Y-96184549D01*
X66750000Y-95714555D02*
X66742478Y-95647798D01*
X66815450Y-96137046D02*
X66779709Y-96080165D01*
X65850000Y-96250000D02*
X64862631Y-96250000D01*
X65916756Y-96242478D02*
X65850000Y-96250000D01*
X66516756Y-95422076D02*
X66450000Y-95414555D01*
X66779709Y-96080165D02*
X66757521Y-96016756D01*
X66757521Y-96016756D02*
X66750000Y-95950000D01*
X66037046Y-96184549D02*
X65980165Y-96220290D01*
X66720290Y-95584389D02*
X66684549Y-95527508D01*
X66157521Y-95647798D02*
X66150000Y-95714555D01*
X66450000Y-95414555D02*
X66383243Y-95422076D01*
X67600000Y-96250000D02*
X67050000Y-96250000D01*
X67050000Y-96250000D02*
X66983243Y-96242478D01*
X66862953Y-96184549D02*
X66815450Y-96137046D01*
X66684549Y-95527508D02*
X66637046Y-95480005D01*
X66150000Y-95714555D02*
X66150000Y-95950000D01*
X66319834Y-95444264D02*
X66262953Y-95480005D01*
X66150000Y-95950000D02*
X66142478Y-96016756D01*
X66179709Y-95584389D02*
X66157521Y-95647798D01*
X62750000Y-95250000D02*
X59750000Y-95250000D01*
X48650000Y-86069998D02*
X51144998Y-83575000D01*
X48650000Y-87240000D02*
X48650000Y-86069998D01*
X81820000Y-83575000D02*
X83055000Y-84810000D01*
X46800000Y-89090000D02*
X48650000Y-87240000D01*
X51144998Y-83575000D02*
X81820000Y-83575000D01*
X81790000Y-90300000D02*
X84440000Y-87650000D01*
X55410000Y-90300000D02*
X81790000Y-90300000D01*
X54200000Y-89090000D02*
X55410000Y-90300000D01*
X50500000Y-89090000D02*
X51765000Y-87825000D01*
X51765000Y-87825000D02*
X68936998Y-87825000D01*
X79570000Y-89750000D02*
X81670000Y-87650000D01*
X68936998Y-87825000D02*
X70861998Y-89750000D01*
X70861998Y-89750000D02*
X79570000Y-89750000D01*
X45300000Y-106700000D02*
X51800004Y-106700000D01*
X38900000Y-113000000D02*
X39000000Y-113000000D01*
X39000000Y-113000000D02*
X45300000Y-106700000D01*
X42704615Y-140954615D02*
X42704615Y-133349990D01*
X38750000Y-129500000D02*
X38750000Y-126500000D01*
X44290000Y-142540000D02*
X42704615Y-140954615D01*
X44290000Y-146250000D02*
X44290000Y-142540000D01*
X49700000Y-126000000D02*
X46950000Y-123250000D01*
X46950000Y-123250000D02*
X44250000Y-123250000D01*
X56000000Y-134000000D02*
X45000000Y-134000000D01*
X45000000Y-134000000D02*
X44500000Y-133500000D01*
X46000000Y-135000000D02*
X45999996Y-134999996D01*
X56000000Y-135000000D02*
X46000000Y-135000000D01*
X82700000Y-134000000D02*
X83000000Y-134300000D01*
X88300000Y-134300000D02*
X103000000Y-149000000D01*
X83000000Y-134300000D02*
X88300000Y-134300000D01*
X80000000Y-134000000D02*
X82700000Y-134000000D01*
X82703561Y-133000000D02*
X83403561Y-133700000D01*
X80000000Y-133000000D02*
X82703561Y-133000000D01*
X89000000Y-133700000D02*
X101760000Y-146460000D01*
X101760000Y-146460000D02*
X103000000Y-146460000D01*
X83403561Y-133700000D02*
X89000000Y-133700000D01*
X83700000Y-133100000D02*
X89700000Y-133100000D01*
X89700000Y-133100000D02*
X100520000Y-143920000D01*
X82600000Y-132000000D02*
X83700000Y-133100000D01*
X80000000Y-132000000D02*
X82600000Y-132000000D01*
X100520000Y-143920000D02*
X103000000Y-143920000D01*
X82500000Y-131000000D02*
X84000000Y-132500000D01*
X99280000Y-141380000D02*
X103000000Y-141380000D01*
X90400000Y-132500000D02*
X99280000Y-141380000D01*
X80000000Y-131000000D02*
X82500000Y-131000000D01*
X84000000Y-132500000D02*
X90400000Y-132500000D01*
X82400000Y-130000000D02*
X84300000Y-131900000D01*
X80000000Y-130000000D02*
X82400000Y-130000000D01*
X91000000Y-131900000D02*
X97940000Y-138840000D01*
X84300000Y-131900000D02*
X91000000Y-131900000D01*
X97940000Y-138840000D02*
X103000000Y-138840000D01*
X82300000Y-129000000D02*
X84600000Y-131300000D01*
X96700000Y-136300000D02*
X103000000Y-136300000D01*
X80000000Y-129000000D02*
X82300000Y-129000000D01*
X91700000Y-131300000D02*
X96700000Y-136300000D01*
X84600000Y-131300000D02*
X91700000Y-131300000D01*
X82200000Y-128000000D02*
X84999990Y-130799990D01*
X92549990Y-130799990D02*
X95510000Y-133760000D01*
X84999990Y-130799990D02*
X92549990Y-130799990D01*
X80000000Y-128000000D02*
X82200000Y-128000000D01*
X95510000Y-133760000D02*
X103000000Y-133760000D01*
X82100000Y-127000000D02*
X85200000Y-130100000D01*
X94320000Y-131220000D02*
X103000000Y-131220000D01*
X80000000Y-127000000D02*
X82100000Y-127000000D01*
X85200000Y-130100000D02*
X93200000Y-130100000D01*
X93200000Y-130100000D02*
X94320000Y-131220000D01*
X73000000Y-121100000D02*
X73249979Y-121349979D01*
X88349977Y-121349979D02*
X92500000Y-125500000D01*
X100250000Y-125500000D02*
X100750000Y-125000000D01*
X101850000Y-119000000D02*
X103000000Y-119000000D01*
X100750000Y-125000000D02*
X100750000Y-120100000D01*
X73249979Y-121349979D02*
X88349977Y-121349979D01*
X73000000Y-120000000D02*
X73000000Y-121100000D01*
X100750000Y-120100000D02*
X101850000Y-119000000D01*
X72900000Y-118000000D02*
X79050000Y-118000000D01*
X79050000Y-118000000D02*
X81250000Y-120200000D01*
X72000000Y-118900000D02*
X72900000Y-118000000D01*
X72000000Y-120000000D02*
X72000000Y-118900000D01*
X71850000Y-121950000D02*
X87450000Y-121950000D01*
X71000000Y-121100000D02*
X71850000Y-121950000D01*
X87450000Y-121950000D02*
X89500000Y-124000000D01*
X71000000Y-120000000D02*
X71000000Y-121100000D01*
X71450000Y-122550000D02*
X86600000Y-122550000D01*
X86600000Y-122550000D02*
X90650000Y-126600000D01*
X70000000Y-121100000D02*
X71450000Y-122550000D01*
X90650000Y-126600000D02*
X92500000Y-126600000D01*
X70000000Y-120000000D02*
X70000000Y-121100000D01*
X98500000Y-128250000D02*
X98500000Y-122400000D01*
X96100000Y-120000000D02*
X92700000Y-120000000D01*
X100250000Y-130000000D02*
X98500000Y-128250000D01*
X70800000Y-117350000D02*
X69000000Y-119150000D01*
X98500000Y-122400000D02*
X96100000Y-120000000D01*
X69000000Y-119150000D02*
X69000000Y-120000000D01*
X90050000Y-117350000D02*
X70800000Y-117350000D01*
X92700000Y-120000000D02*
X90050000Y-117350000D01*
X100537500Y-114650000D02*
X100537500Y-109650000D01*
X68000000Y-119150000D02*
X68000000Y-120000000D01*
X99500000Y-122492864D02*
X96357136Y-119350000D01*
X92950000Y-119350000D02*
X90350000Y-116750000D01*
X96357136Y-119350000D02*
X92950000Y-119350000D01*
X99500000Y-128000000D02*
X99500000Y-122492864D01*
X70400000Y-116750000D02*
X68000000Y-119150000D01*
X90350000Y-116750000D02*
X70400000Y-116750000D01*
X70750000Y-134100000D02*
X70750000Y-130250000D01*
X67000000Y-123500000D02*
X66000000Y-124500000D01*
X67000000Y-120000000D02*
X67000000Y-123500000D01*
X81000000Y-151250000D02*
X81000000Y-144350000D01*
X81000000Y-144350000D02*
X70750000Y-134100000D01*
X66000000Y-123500000D02*
X65000000Y-124500000D01*
X66000000Y-120000000D02*
X66000000Y-123500000D01*
X64000000Y-120000000D02*
X64000000Y-124500000D01*
X85850000Y-154850000D02*
X69850000Y-154850000D01*
X69850000Y-154850000D02*
X65500000Y-150500000D01*
X88000000Y-157000000D02*
X85850000Y-154850000D01*
X83960000Y-155500000D02*
X85460000Y-157000000D01*
X63000000Y-128000000D02*
X62500000Y-128500000D01*
X69000000Y-155500000D02*
X83960000Y-155500000D01*
X64000000Y-150500000D02*
X69000000Y-155500000D01*
X63000000Y-120000000D02*
X63000000Y-128000000D01*
X34462500Y-131250000D02*
X34462500Y-126250000D01*
G04 #@! TA.AperFunction,Conductor*
G36*
X73092121Y-140770002D02*
G01*
X73138614Y-140823658D01*
X73150000Y-140876000D01*
X73150000Y-141486580D01*
X73143833Y-141525514D01*
X73130916Y-141565270D01*
X73130226Y-141571833D01*
X73130224Y-141571843D01*
X73129512Y-141578617D01*
X73125911Y-141598048D01*
X73124148Y-141604627D01*
X73124147Y-141604634D01*
X73122439Y-141611008D01*
X73122093Y-141617601D01*
X73122093Y-141617604D01*
X73118962Y-141677345D01*
X73118445Y-141683919D01*
X73116500Y-141702428D01*
X73116500Y-141721028D01*
X73116327Y-141727623D01*
X73112717Y-141796500D01*
X73113749Y-141803015D01*
X73113749Y-141803016D01*
X73114949Y-141810592D01*
X73116500Y-141830303D01*
X73116500Y-142721028D01*
X73116327Y-142727623D01*
X73112717Y-142796500D01*
X73113749Y-142803015D01*
X73113749Y-142803016D01*
X73114949Y-142810592D01*
X73116500Y-142830303D01*
X73116500Y-143905860D01*
X73116455Y-143906710D01*
X73116367Y-143907126D01*
X73116367Y-144092874D01*
X73117740Y-144099333D01*
X73124676Y-144131967D01*
X73126738Y-144144989D01*
X73128403Y-144160826D01*
X73115633Y-144230665D01*
X73067133Y-144282513D01*
X73003094Y-144300000D01*
X70939500Y-144300000D01*
X70871379Y-144279998D01*
X70824886Y-144226342D01*
X70813500Y-144174000D01*
X70813500Y-143200000D01*
X70808273Y-143126921D01*
X70767096Y-142986684D01*
X70720002Y-142913405D01*
X70700000Y-142845284D01*
X70700000Y-142705115D01*
X71300000Y-142705115D01*
X71300000Y-143681885D01*
X71304475Y-143697124D01*
X71305865Y-143698329D01*
X71313548Y-143700000D01*
X71681885Y-143700000D01*
X71697124Y-143695525D01*
X71698329Y-143694135D01*
X71700000Y-143686452D01*
X71700000Y-142705115D01*
X72300000Y-142705115D01*
X72300000Y-143681885D01*
X72304475Y-143697124D01*
X72305865Y-143698329D01*
X72313548Y-143700000D01*
X72681885Y-143700000D01*
X72697124Y-143695525D01*
X72698329Y-143694135D01*
X72700000Y-143686452D01*
X72700000Y-142705115D01*
X72695616Y-142690186D01*
X72684215Y-142688129D01*
X72633731Y-142691740D01*
X72620509Y-142694126D01*
X72540290Y-142717680D01*
X72469294Y-142717680D01*
X72453020Y-142711610D01*
X72435612Y-142706498D01*
X72317929Y-142689578D01*
X72303973Y-142691584D01*
X72300000Y-142705115D01*
X71700000Y-142705115D01*
X71695616Y-142690186D01*
X71684215Y-142688129D01*
X71633731Y-142691740D01*
X71620509Y-142694126D01*
X71540290Y-142717680D01*
X71469294Y-142717680D01*
X71453020Y-142711610D01*
X71435612Y-142706498D01*
X71317929Y-142689578D01*
X71303973Y-142691584D01*
X71300000Y-142705115D01*
X70700000Y-142705115D01*
X70695616Y-142690186D01*
X70684215Y-142688129D01*
X70633731Y-142691740D01*
X70620512Y-142694125D01*
X70541017Y-142717467D01*
X70470020Y-142717467D01*
X70453171Y-142711182D01*
X70452866Y-142711043D01*
X70444670Y-142707300D01*
X70435755Y-142706018D01*
X70435754Y-142706018D01*
X70304448Y-142687139D01*
X70304441Y-142687138D01*
X70300000Y-142686500D01*
X70126000Y-142686500D01*
X70057879Y-142666498D01*
X70011386Y-142612842D01*
X70000000Y-142560500D01*
X70000000Y-140876000D01*
X70020002Y-140807879D01*
X70073658Y-140761386D01*
X70126000Y-140750000D01*
X73024000Y-140750000D01*
X73092121Y-140770002D01*
G37*
G04 #@! TD.AperFunction*
G04 #@! TA.AperFunction,Conductor*
G36*
X76484672Y-140770002D02*
G01*
X76505646Y-140786905D01*
X76963095Y-141244354D01*
X76997121Y-141306666D01*
X77000000Y-141333449D01*
X77000000Y-142874000D01*
X76979998Y-142942121D01*
X76926342Y-142988614D01*
X76874000Y-143000000D01*
X76843866Y-143000000D01*
X76775745Y-142979998D01*
X76737868Y-142942120D01*
X76692574Y-142871640D01*
X76680888Y-142858153D01*
X76584160Y-142774338D01*
X76569152Y-142764693D01*
X76452725Y-142711523D01*
X76435612Y-142706498D01*
X76317929Y-142689578D01*
X76303973Y-142691584D01*
X76300000Y-142705115D01*
X76300000Y-144174000D01*
X76279998Y-144242121D01*
X76226342Y-144288614D01*
X76174000Y-144300000D01*
X73996906Y-144300000D01*
X73928785Y-144279998D01*
X73882292Y-144226342D01*
X73871597Y-144160826D01*
X73873262Y-144144989D01*
X73875324Y-144131967D01*
X73882260Y-144099333D01*
X73883633Y-144092874D01*
X73883633Y-143907126D01*
X73883545Y-143906710D01*
X73883500Y-143905860D01*
X73883500Y-142830303D01*
X73885051Y-142810592D01*
X73886251Y-142803016D01*
X73887283Y-142796500D01*
X73886122Y-142774338D01*
X73883673Y-142727623D01*
X73883500Y-142721028D01*
X73883500Y-142705115D01*
X74300000Y-142705115D01*
X74300000Y-143681885D01*
X74304475Y-143697124D01*
X74305865Y-143698329D01*
X74313548Y-143700000D01*
X74681885Y-143700000D01*
X74697124Y-143695525D01*
X74698329Y-143694135D01*
X74700000Y-143686452D01*
X74700000Y-142705115D01*
X75300000Y-142705115D01*
X75300000Y-143681885D01*
X75304475Y-143697124D01*
X75305865Y-143698329D01*
X75313548Y-143700000D01*
X75681885Y-143700000D01*
X75697124Y-143695525D01*
X75698329Y-143694135D01*
X75700000Y-143686452D01*
X75700000Y-142705115D01*
X75695616Y-142690186D01*
X75684215Y-142688129D01*
X75633731Y-142691740D01*
X75620509Y-142694126D01*
X75540290Y-142717680D01*
X75469294Y-142717680D01*
X75453020Y-142711610D01*
X75435612Y-142706498D01*
X75317929Y-142689578D01*
X75303973Y-142691584D01*
X75300000Y-142705115D01*
X74700000Y-142705115D01*
X74695616Y-142690186D01*
X74684215Y-142688129D01*
X74633731Y-142691740D01*
X74620509Y-142694126D01*
X74540290Y-142717680D01*
X74469294Y-142717680D01*
X74453020Y-142711610D01*
X74435612Y-142706498D01*
X74317929Y-142689578D01*
X74303973Y-142691584D01*
X74300000Y-142705115D01*
X73883500Y-142705115D01*
X73883500Y-141830303D01*
X73885051Y-141810592D01*
X73886251Y-141803016D01*
X73887283Y-141796500D01*
X73883673Y-141727623D01*
X73883500Y-141721028D01*
X73883500Y-141702428D01*
X73881555Y-141683919D01*
X73881038Y-141677345D01*
X73877907Y-141617606D01*
X73877907Y-141617604D01*
X73877561Y-141611008D01*
X73874090Y-141598053D01*
X73870487Y-141578616D01*
X73869775Y-141571839D01*
X73869774Y-141571835D01*
X73869084Y-141565270D01*
X73856167Y-141525514D01*
X73850000Y-141486580D01*
X73850000Y-140876000D01*
X73870002Y-140807879D01*
X73923658Y-140761386D01*
X73976000Y-140750000D01*
X76416551Y-140750000D01*
X76484672Y-140770002D01*
G37*
G04 #@! TD.AperFunction*
G04 #@! TA.AperFunction,Conductor*
G36*
X96184671Y-121020002D02*
G01*
X96205645Y-121036905D01*
X96263095Y-121094355D01*
X96297121Y-121156667D01*
X96300000Y-121183450D01*
X96300000Y-129674000D01*
X96279998Y-129742121D01*
X96226342Y-129788614D01*
X96174000Y-129800000D01*
X93883449Y-129800000D01*
X93815328Y-129779998D01*
X93794354Y-129763095D01*
X93721906Y-129690647D01*
X93715122Y-129683192D01*
X93711236Y-129677069D01*
X93664942Y-129633596D01*
X93662101Y-129630842D01*
X93637643Y-129606384D01*
X93632685Y-129602538D01*
X93623667Y-129594836D01*
X93595778Y-129568646D01*
X93595775Y-129568644D01*
X93589996Y-129563217D01*
X93583049Y-129559398D01*
X93583045Y-129559395D01*
X93571210Y-129552889D01*
X93554682Y-129542032D01*
X93551825Y-129539816D01*
X93537749Y-129528897D01*
X93495359Y-129510553D01*
X93484722Y-129505343D01*
X93444251Y-129483093D01*
X93435974Y-129480968D01*
X93423486Y-129477761D01*
X93404783Y-129471358D01*
X93392387Y-129465994D01*
X93392386Y-129465994D01*
X93385110Y-129462845D01*
X93377280Y-129461605D01*
X93377274Y-129461603D01*
X93339502Y-129455620D01*
X93327882Y-129453214D01*
X93288914Y-129443209D01*
X93288908Y-129443208D01*
X93283159Y-129441732D01*
X93279472Y-129441500D01*
X93276000Y-129441500D01*
X93275822Y-129441448D01*
X93275509Y-129441438D01*
X93275512Y-129441357D01*
X93273517Y-129440771D01*
X93271364Y-129440430D01*
X93271408Y-129440152D01*
X93207879Y-129421498D01*
X93161386Y-129367842D01*
X93150000Y-129315500D01*
X93150000Y-127120577D01*
X93171052Y-127050850D01*
X93219639Y-126977721D01*
X93219640Y-126977719D01*
X93223540Y-126971849D01*
X93287942Y-126802309D01*
X93313183Y-126622714D01*
X93313500Y-126600000D01*
X93293284Y-126419770D01*
X93233641Y-126248498D01*
X93169146Y-126145284D01*
X93150000Y-126078514D01*
X93150000Y-126020577D01*
X93171052Y-125950850D01*
X93219639Y-125877721D01*
X93219640Y-125877719D01*
X93223540Y-125871849D01*
X93287942Y-125702309D01*
X93313183Y-125522714D01*
X93313500Y-125500000D01*
X93293284Y-125319770D01*
X93233641Y-125148498D01*
X93169146Y-125045284D01*
X93150000Y-124978514D01*
X93150000Y-121126000D01*
X93170002Y-121057879D01*
X93223658Y-121011386D01*
X93276000Y-121000000D01*
X96116550Y-121000000D01*
X96184671Y-121020002D01*
G37*
G04 #@! TD.AperFunction*
M02*
