G04 #@! TF.GenerationSoftware,KiCad,Pcbnew,(5.99.0-9519-ga70106a3bd)*
G04 #@! TF.CreationDate,2021-03-11T21:55:01+03:00*
G04 #@! TF.ProjectId,UnderControl,556e6465-7243-46f6-9e74-726f6c2e6b69,rev?*
G04 #@! TF.SameCoordinates,Original*
G04 #@! TF.FileFunction,Soldermask,Bot*
G04 #@! TF.FilePolarity,Negative*
%FSLAX46Y46*%
G04 Gerber Fmt 4.6, Leading zero omitted, Abs format (unit mm)*
G04 Created by KiCad (PCBNEW (5.99.0-9519-ga70106a3bd)) date 2021-03-11 21:55:01*
%MOMM*%
%LPD*%
G01*
G04 APERTURE LIST*
%ADD10C,0.800000*%
%ADD11C,6.400000*%
%ADD12R,1.700000X1.700000*%
%ADD13O,1.700000X1.700000*%
%ADD14C,1.450000*%
%ADD15O,1.900000X1.100000*%
%ADD16C,4.000000*%
%ADD17R,1.600000X1.600000*%
%ADD18C,1.600000*%
%ADD19C,1.500000*%
%ADD20R,1.500000X4.000000*%
%ADD21R,2.250000X1.100000*%
%ADD22R,1.100000X1.050000*%
%ADD23R,1.100000X2.250000*%
%ADD24R,1.050000X1.100000*%
%ADD25R,0.600000X1.600000*%
%ADD26R,1.600000X0.600000*%
G04 APERTURE END LIST*
D10*
X35497056Y-95697056D03*
X32102944Y-92302944D03*
X35497056Y-92302944D03*
X31400000Y-94000000D03*
X32102944Y-95697056D03*
X33800000Y-96400000D03*
X33800000Y-91600000D03*
D11*
X33800000Y-94000000D03*
D10*
X36200000Y-94000000D03*
D12*
X56800000Y-93050000D03*
D13*
X54260000Y-93050000D03*
X51720000Y-93050000D03*
D12*
X95000000Y-157000000D03*
D13*
X92460000Y-157000000D03*
D12*
X103000000Y-149000000D03*
D13*
X103000000Y-146460000D03*
X103000000Y-143920000D03*
X103000000Y-141380000D03*
X103000000Y-138840000D03*
X103000000Y-136300000D03*
X103000000Y-133760000D03*
X103000000Y-131220000D03*
D12*
X32000000Y-148000000D03*
D13*
X32000000Y-150540000D03*
D12*
X74000000Y-157000000D03*
D13*
X71460000Y-157000000D03*
X68920000Y-157000000D03*
D12*
X88000000Y-157000000D03*
D13*
X85460000Y-157000000D03*
D12*
X50000000Y-157000000D03*
D13*
X52540000Y-157000000D03*
X55080000Y-157000000D03*
D14*
X34462500Y-131250000D03*
D15*
X31762500Y-125250000D03*
D14*
X34462500Y-126250000D03*
D15*
X31762500Y-132250000D03*
D12*
X77100000Y-93000000D03*
D13*
X77100000Y-95540000D03*
X79640000Y-93000000D03*
X79640000Y-95540000D03*
X82180000Y-93000000D03*
X82180000Y-95540000D03*
X84720000Y-93000000D03*
X84720000Y-95540000D03*
X87260000Y-93000000D03*
X87260000Y-95540000D03*
D12*
X45400000Y-93000000D03*
D13*
X47940000Y-93000000D03*
D12*
X73300000Y-93050000D03*
D13*
X70760000Y-93050000D03*
X68220000Y-93050000D03*
X65680000Y-93050000D03*
X63140000Y-93050000D03*
X60600000Y-93050000D03*
D12*
X39160000Y-93050000D03*
D13*
X41700000Y-93050000D03*
X39160000Y-95590000D03*
X41700000Y-95590000D03*
X39160000Y-98130000D03*
X41700000Y-98130000D03*
X39160000Y-100670000D03*
X41700000Y-100670000D03*
D12*
X98600000Y-93000000D03*
D13*
X98600000Y-95540000D03*
X96060000Y-93000000D03*
X96060000Y-95540000D03*
X93520000Y-93000000D03*
X93520000Y-95540000D03*
X90980000Y-93000000D03*
X90980000Y-95540000D03*
D12*
X46800000Y-86550000D03*
D13*
X46800000Y-89090000D03*
D12*
X50500000Y-86550000D03*
D13*
X50500000Y-89090000D03*
D12*
X66200000Y-86550000D03*
D13*
X66200000Y-89090000D03*
D12*
X62500000Y-86550000D03*
D13*
X62500000Y-89090000D03*
D12*
X58800000Y-86550000D03*
D13*
X58800000Y-89090000D03*
D16*
X71940000Y-87350000D03*
X96940000Y-87350000D03*
D17*
X78900000Y-87650000D03*
D18*
X81670000Y-87650000D03*
X84440000Y-87650000D03*
X87210000Y-87650000D03*
X89980000Y-87650000D03*
X80285000Y-84810000D03*
X83055000Y-84810000D03*
X85825000Y-84810000D03*
X88595000Y-84810000D03*
D12*
X54200000Y-86550000D03*
D13*
X54200000Y-89090000D03*
D12*
X32250000Y-121900000D03*
D13*
X32250000Y-119360000D03*
X32250000Y-116820000D03*
X32250000Y-114280000D03*
X32250000Y-111740000D03*
D12*
X81000000Y-157000000D03*
D13*
X78460000Y-157000000D03*
D10*
X101000000Y-158400000D03*
X101000000Y-153600000D03*
X103400000Y-156000000D03*
X102697056Y-157697056D03*
X102697056Y-154302944D03*
X99302944Y-157697056D03*
X98600000Y-156000000D03*
X99302944Y-154302944D03*
D11*
X101000000Y-156000000D03*
D12*
X103000000Y-98200000D03*
D13*
X103000000Y-100740000D03*
X103000000Y-103280000D03*
X103000000Y-105820000D03*
D14*
X100537500Y-109650000D03*
D15*
X103237500Y-115650000D03*
X103237500Y-108650000D03*
D14*
X100537500Y-114650000D03*
D12*
X103000000Y-119000000D03*
D13*
X103000000Y-121540000D03*
X103000000Y-124080000D03*
X103000000Y-126620000D03*
D12*
X34800000Y-100000000D03*
D13*
X32260000Y-100000000D03*
X34800000Y-102540000D03*
X32260000Y-102540000D03*
X34800000Y-105080000D03*
X32260000Y-105080000D03*
X34800000Y-107620000D03*
X32260000Y-107620000D03*
D12*
X33000000Y-157000000D03*
D13*
X35540000Y-157000000D03*
X38080000Y-157000000D03*
X40620000Y-157000000D03*
X43160000Y-157000000D03*
X45700000Y-157000000D03*
D19*
X40225000Y-139600000D03*
X33225000Y-139600000D03*
D20*
X39210000Y-146250000D03*
X41750000Y-146250000D03*
X44290000Y-146250000D03*
X39210000Y-123250000D03*
X41750000Y-123250000D03*
X44250000Y-123250000D03*
D21*
X85000000Y-126475000D03*
X85000000Y-123525000D03*
D22*
X83450000Y-125000000D03*
D23*
X61475000Y-115000000D03*
X58525000Y-115000000D03*
D24*
X60000000Y-116550000D03*
D21*
X85000000Y-139475000D03*
X85000000Y-136525000D03*
D22*
X83450000Y-138000000D03*
D25*
X76000000Y-144000000D03*
X75000000Y-144000000D03*
X74000000Y-144000000D03*
X73000000Y-144000000D03*
X72000000Y-144000000D03*
X71000000Y-144000000D03*
X70000000Y-144000000D03*
X69000000Y-144000000D03*
X68000000Y-144000000D03*
X67000000Y-144000000D03*
X66000000Y-144000000D03*
X65000000Y-144000000D03*
X64000000Y-144000000D03*
X63000000Y-144000000D03*
X62000000Y-144000000D03*
X61000000Y-144000000D03*
X60000000Y-144000000D03*
D26*
X56000000Y-140000000D03*
X56000000Y-139000000D03*
X56000000Y-138000000D03*
X56000000Y-137000000D03*
X56000000Y-136000000D03*
X56000000Y-135000000D03*
X56000000Y-134000000D03*
X56000000Y-133000000D03*
X56000000Y-132000000D03*
X56000000Y-131000000D03*
X56000000Y-130000000D03*
X56000000Y-129000000D03*
X56000000Y-128000000D03*
X56000000Y-127000000D03*
X56000000Y-126000000D03*
X56000000Y-125000000D03*
X56000000Y-124000000D03*
D25*
X60000000Y-120000000D03*
X61000000Y-120000000D03*
X62000000Y-120000000D03*
X63000000Y-120000000D03*
X64000000Y-120000000D03*
X65000000Y-120000000D03*
X66000000Y-120000000D03*
X67000000Y-120000000D03*
X68000000Y-120000000D03*
X69000000Y-120000000D03*
X70000000Y-120000000D03*
X71000000Y-120000000D03*
X72000000Y-120000000D03*
X73000000Y-120000000D03*
X74000000Y-120000000D03*
X75000000Y-120000000D03*
X76000000Y-120000000D03*
D26*
X80000000Y-124000000D03*
X80000000Y-125000000D03*
X80000000Y-126000000D03*
X80000000Y-127000000D03*
X80000000Y-128000000D03*
X80000000Y-129000000D03*
X80000000Y-130000000D03*
X80000000Y-131000000D03*
X80000000Y-132000000D03*
X80000000Y-133000000D03*
X80000000Y-134000000D03*
X80000000Y-135000000D03*
X80000000Y-136000000D03*
X80000000Y-137000000D03*
X80000000Y-138000000D03*
X80000000Y-139000000D03*
X80000000Y-140000000D03*
M02*
